<svg preserveAspectRatio="none" width="100%" height="100%" overflow="visible" style="display: block;" viewBox="0 0 32 32" fill="none" xmlns="http://www.w3.org/2000/svg">
<g id="SVG">
<path id="Vector" d="M17 2H15V8H17V2ZM16 10C12.6863 10 10 12.6863 10 16C10 19.3137 12.6863 22 16 22C19.3137 22 22 19.3137 22 16C22 12.6863 19.3137 10 16 10ZM16 20C13.7909 20 12 18.2091 12 16C12 13.7909 13.7909 12 16 12C18.2091 12 20 13.7909 20 16C20 18.2091 18.2091 20 16 20ZM15 30H17V24H15V30ZM11.0503 9.63605L6.80762 5.39337L5.39337 6.80762L9.63605 11.0503L11.0503 9.63605ZM20.9498 22.364L25.1924 26.6066L26.6066 25.1924L22.364 20.9497L20.9498 22.364ZM8 15H2V17H8V15ZM24 15V17H30V15H24ZM5.39337 25.1924L6.80762 26.6066L11.0503 22.364L9.63605 20.9497L5.39337 25.1924ZM26.6066 6.80762L25.1924 5.39337L20.9497 9.63605L22.364 11.0502L26.6066 6.80762Z" fill="var(--fill-0, #031121)"/>
</g>
</svg>
